<svg xmlns="http://www.w3.org/2000/svg" width="21" height="15" fill="#ff0048"><circle cx="10.996" cy="7.207" r="7.207"/><circle cx="10.997" cy="7.206" r="3.672" stroke="#fff"/><path fill-rule="evenodd" d="M19.714 1.316l-1.29 7.103c-.033.18.106.347.3.347h.707v5.12a.53.53 0 0 0 .529.53.53.53 0 0 0 .53-.53v-12.5c0-.213-.172-.385-.385-.385-.186 0-.345.133-.38.316zM0 2.06v3.588a1 1 0 0 0 1 1h.27v7.238a.53.53 0 0 0 .53.53.53.53 0 0 0 .53-.53V6.648h.202a1 1 0 0 0 1-1V5.6h.001V2.06c0-.195-.158-.353-.353-.353s-.353.158-.353.353v2.514a1 1 0 0 0-.295-.044h-.4V2.06c0-.195-.158-.353-.353-.353s-.353.158-.353.353v2.47H1a1 1 0 0 0-.294.044V2.06c0-.195-.158-.353-.353-.353S0 1.865 0 2.06z"/></svg>