<svg xmlns="http://www.w3.org/2000/svg" xmlns:xlink="http://www.w3.org/1999/xlink" width="145" height="28" fill="none" xmlns:v="https://vecta.io/nano"><path d="M71.845 8.923L75.16 6.48H64.064v14.677H75.16v-2.444h-7.93v-3.758h6.764v-2.443H67.23v-3.59h4.614zM55.7 12.2h-3.854V8.923h6.152l3.315-2.444H48.668v14.68h6.608c3.708 0 5.835-1.68 5.835-4.6.005-2.806-1.922-4.35-5.422-4.35zm-.552 6.512h-3.302v-4.064h3.302c2 0 2.947.68 2.947 2.034 0 1.38-1 2.03-2.947 2.03zM84.15 6.48H78.1v14.68h3.167v-4.156h2.873c3.855 0 6.25-2.027 6.25-5.267S88 6.48 84.15 6.48zm-.068 8.072h-2.807v-5.63h2.807c2.03 0 3.146 1 3.146 2.815s-1.117 2.813-3.146 2.813zm-40.85 3.426c-.84.455-1.78.7-2.734.685-2.855 0-4.927-2.037-4.927-4.845s2.072-4.846 4.927-4.846a4.83 4.83 0 0 1 2.884.901L45.655 8.2l-.15-.13C44.18 6.905 42.407 6.3 40.38 6.3c-2.203 0-4.192.74-5.616 2.087s-2.22 3.256-2.22 5.363.785 4.047 2.213 5.442 3.418 2.173 5.6 2.173c2.283 0 4.277-.796 5.628-2.244l-2.05-1.5-.702.38zM22.657 6.362a12.23 12.23 0 0 1 1.461 2.425L13 16.975l-4.643-2.9v-3.5l4.643 2.9 9.647-7.112z" fill="#21a038"/><path d="M3.63 13.818l.01-.468-2.814-.138-.015.61a12.16 12.16 0 0 0 3.572 8.619l1.996-1.995c-.872-.87-1.565-1.902-2.037-3.04s-.715-2.357-.714-3.588h0z" fill="url(#A)"/><path d="M13.007 4.44l.468.013.14-2.814-.61-.014a12.16 12.16 0 0 0-8.623 3.571L6.38 7.19c.87-.873 1.902-1.565 3.04-2.037s2.357-.715 3.59-.714h0z" fill="url(#B)"/><path d="M13.007 23.196c-.157 0-.313 0-.47-.012l-.14 2.814.6.015c1.6.002 3.187-.313 4.666-.926a12.15 12.15 0 0 0 3.953-2.646l-1.992-1.995a9.35 9.35 0 0 1-3.039 2.036c-1.137.472-2.356.715-3.588.714z" fill="url(#C)"/><path d="M18.293 6.076l2.37-1.748a12.14 12.14 0 0 0-7.661-2.705h0V4.44a9.33 9.33 0 0 1 5.29 1.637h0z" fill="url(#D)"/><path d="M25.202 13.818a12.27 12.27 0 0 0-.192-2.185l-2.625 1.934v.25a9.35 9.35 0 0 1-3.089 6.951l1.893 2.092c1.265-1.142 2.276-2.537 2.967-4.095s1.047-3.244 1.045-4.948h0z" fill="#21a038"/><path d="M13.007 23.196a9.36 9.36 0 0 1-6.951-3.089L3.964 22a12.16 12.16 0 0 0 9.043 4.014v-2.816z" fill="url(#E)"/><path d="M6.718 6.867L4.826 4.775a12.16 12.16 0 0 0-4.014 9.043H3.63c-.001-1.3.274-2.606.806-3.803s1.3-2.27 2.283-3.147h0z" fill="url(#F)"/><path d="M107.226 7.172h.544c4.487 0 6.983 2.432 6.983 6.478 0 4.298-2.664 6.52-7.17 6.52h-.356v1.404h-2.62V20.17h-.545c-4.487 0-6.98-2.432-6.98-6.478 0-4.298 2.662-6.52 7.17-6.52h.357V6.06h2.62v1.1zm-3.065 10.713h.44V9.458h-.398c-2.935 0-4.36 1.34-4.36 4.15.004 3.08 1.9 4.276 4.323 4.276h-.004zm3.065-8.427v8.427h.398c2.935 0 4.36-1.34 4.36-4.15 0-3.082-1.887-4.277-4.32-4.277l-.44.001zm14.256 8.512l-6.416-11.492h3.04L122.822 15l3.86-8.512h2.746l-5.387 11.618c-1.196 2.558-2.306 3.23-3.795 3.23a4.5 4.5 0 0 1-1.698-.336v-2.726c.377.356.985.587 1.593.587.545 0 1.003-.2 1.342-.88zm8.663.775c.84-1.992 1.446-4.76 1.5-9.225l.042-3.04h10.315v12.265h1.698v5.137h-2.456V21.16H131v2.726h-2.453v-5.14h1.598zm2.557 0h6.7V8.9h-5.305v.692c-.088 3.836-.55 6.856-1.387 9.162h.003z" fill="#ff0041"/><defs><linearGradient id="A" x1="4.953" y1="22.088" x2="1.876" y2="13.191" xlink:href="#G"><stop offset=".14" stop-color="#f1e813"/><stop offset=".3" stop-color="#e6e418"/><stop offset=".58" stop-color="#c9da26"/><stop offset=".89" stop-color="#a2cc39"/></linearGradient><linearGradient id="B" x1="5.188" y1="5.693" x2="13.116" y2="2.672" xlink:href="#G"><stop offset=".06" stop-color="#0fa7df"/><stop offset=".54" stop-color="#0098f8"/><stop offset=".92" stop-color="#0290ea"/></linearGradient><linearGradient id="C" x1="12.211" y1="24.312" x2="21.177" y2="22.287" xlink:href="#G"><stop offset=".12" stop-color="#a2cc39"/><stop offset=".28" stop-color="#86c239"/><stop offset=".87" stop-color="#219f38"/></linearGradient><linearGradient id="D" x1="12.417" y1="2.566" x2="20.082" y2="4.932" xlink:href="#G"><stop offset=".06" stop-color="#0290ea"/><stop offset=".79" stop-color="#0c89ca"/></linearGradient><linearGradient id="E" x1="4.671" y1="21.656" x2="13.014" y2="24.774" xlink:href="#G"><stop offset=".13" stop-color="#f1e813"/><stop offset=".3" stop-color="#eae616"/><stop offset=".53" stop-color="#d8df1f"/><stop offset=".8" stop-color="#bad52d"/><stop offset=".98" stop-color="#a2cc39"/></linearGradient><linearGradient id="F" x1="1.861" y1="14.159" x2="5.21" y2="5.447" xlink:href="#G"><stop offset=".07" stop-color="#a2cc39"/><stop offset=".26" stop-color="#81c45e"/><stop offset=".92" stop-color="#0fa7df"/></linearGradient><linearGradient id="G" gradientUnits="userSpaceOnUse"/></defs></svg>